<mxfile host="Electron" agent="Mozilla/5.0 (Windows NT 10.0; Win64; x64) AppleWebKit/537.36 (KHTML, like Gecko) draw.io/24.7.8 Chrome/128.0.6613.36 Electron/32.0.1 Safari/537.36" version="24.7.8">
  <diagram name="PÃ¡gina-1" id="rPPJN2Bm0t_TyvkOHLJ8">
    <mxGraphModel dx="1687" dy="984" grid="1" gridSize="10" guides="1" tooltips="1" connect="1" arrows="1" fold="1" page="1" pageScale="1" pageWidth="827" pageHeight="1169" math="0" shadow="0">
      <root>
        <mxCell id="0" />
        <mxCell id="1" parent="0" />
        <mxCell id="gD4abBR8LCtO8fGX3W6F-51" value="" style="group;movable=1;resizable=1;rotatable=1;deletable=1;editable=1;locked=0;connectable=1;" vertex="1" connectable="0" parent="1">
          <mxGeometry x="20" y="250" width="770" height="690" as="geometry" />
        </mxCell>
        <mxCell id="gD4abBR8LCtO8fGX3W6F-54" value="" style="group;movable=1;resizable=1;rotatable=1;deletable=1;editable=1;locked=0;connectable=1;" vertex="1" connectable="0" parent="gD4abBR8LCtO8fGX3W6F-51">
          <mxGeometry width="770" height="690" as="geometry" />
        </mxCell>
        <mxCell id="gD4abBR8LCtO8fGX3W6F-48" value="" style="rounded=0;whiteSpace=wrap;html=1;movable=1;resizable=1;rotatable=1;deletable=1;editable=1;locked=0;connectable=1;" vertex="1" parent="gD4abBR8LCtO8fGX3W6F-54">
          <mxGeometry width="770" height="690" as="geometry" />
        </mxCell>
        <mxCell id="gD4abBR8LCtO8fGX3W6F-50" value="Transaco Financeira" style="text;html=1;align=center;verticalAlign=middle;whiteSpace=wrap;rounded=0;fontSize=15;movable=1;resizable=1;rotatable=1;deletable=1;editable=1;locked=0;connectable=1;" vertex="1" parent="gD4abBR8LCtO8fGX3W6F-54">
          <mxGeometry x="290" width="180" height="30" as="geometry" />
        </mxCell>
        <mxCell id="gD4abBR8LCtO8fGX3W6F-96" value="" style="rounded=0;whiteSpace=wrap;html=1;fillColor=#fff2cc;strokeColor=#d6b656;opacity=40;" vertex="1" parent="gD4abBR8LCtO8fGX3W6F-54">
          <mxGeometry x="10" y="50" width="360" height="140" as="geometry" />
        </mxCell>
        <mxCell id="gD4abBR8LCtO8fGX3W6F-97" value="Acesso Externo" style="text;html=1;align=center;verticalAlign=middle;whiteSpace=wrap;rounded=0;" vertex="1" parent="gD4abBR8LCtO8fGX3W6F-54">
          <mxGeometry x="120" y="50" width="130" height="30" as="geometry" />
        </mxCell>
        <mxCell id="gD4abBR8LCtO8fGX3W6F-98" value="" style="rounded=0;whiteSpace=wrap;html=1;fillColor=#f8cecc;strokeColor=#b85450;opacity=40;" vertex="1" parent="gD4abBR8LCtO8fGX3W6F-54">
          <mxGeometry x="410" y="50" width="340" height="200" as="geometry" />
        </mxCell>
        <mxCell id="gD4abBR8LCtO8fGX3W6F-99" value="Acesso Interno" style="text;html=1;align=center;verticalAlign=middle;whiteSpace=wrap;rounded=0;" vertex="1" parent="gD4abBR8LCtO8fGX3W6F-54">
          <mxGeometry x="520" y="50" width="130" height="30" as="geometry" />
        </mxCell>
        <mxCell id="gD4abBR8LCtO8fGX3W6F-21" value="" style="sketch=0;points=[[0,0,0],[0.25,0,0],[0.5,0,0],[0.75,0,0],[1,0,0],[0,1,0],[0.25,1,0],[0.5,1,0],[0.75,1,0],[1,1,0],[0,0.25,0],[0,0.5,0],[0,0.75,0],[1,0.25,0],[1,0.5,0],[1,0.75,0]];outlineConnect=0;fontColor=#232F3E;fillColor=#7AA116;strokeColor=#ffffff;dashed=0;verticalLabelPosition=bottom;verticalAlign=top;align=center;html=1;fontSize=12;fontStyle=0;aspect=fixed;shape=mxgraph.aws4.resourceIcon;resIcon=mxgraph.aws4.s3;movable=1;resizable=1;rotatable=1;deletable=1;editable=1;locked=0;connectable=1;" vertex="1" parent="gD4abBR8LCtO8fGX3W6F-51">
          <mxGeometry x="570" y="120" width="50" height="50" as="geometry" />
        </mxCell>
        <mxCell id="gD4abBR8LCtO8fGX3W6F-36" style="edgeStyle=orthogonalEdgeStyle;rounded=0;orthogonalLoop=1;jettySize=auto;html=1;movable=1;resizable=1;rotatable=1;deletable=1;editable=1;locked=0;connectable=1;" edge="1" parent="gD4abBR8LCtO8fGX3W6F-51" source="gD4abBR8LCtO8fGX3W6F-22" target="gD4abBR8LCtO8fGX3W6F-21">
          <mxGeometry relative="1" as="geometry">
            <Array as="points">
              <mxPoint x="445" y="210" />
              <mxPoint x="595" y="210" />
            </Array>
          </mxGeometry>
        </mxCell>
        <mxCell id="gD4abBR8LCtO8fGX3W6F-40" value="Devolve Lote Processado" style="edgeLabel;html=1;align=center;verticalAlign=middle;resizable=1;points=[];movable=1;rotatable=1;deletable=1;editable=1;locked=0;connectable=1;" vertex="1" connectable="0" parent="gD4abBR8LCtO8fGX3W6F-36">
          <mxGeometry x="-0.1594" y="-1" relative="1" as="geometry">
            <mxPoint x="18" y="9" as="offset" />
          </mxGeometry>
        </mxCell>
        <mxCell id="gD4abBR8LCtO8fGX3W6F-22" value="" style="outlineConnect=0;dashed=0;verticalLabelPosition=bottom;verticalAlign=top;align=center;html=1;shape=mxgraph.aws3.lambda_function;fillColor=#F58534;gradientColor=none;movable=1;resizable=1;rotatable=1;deletable=1;editable=1;locked=0;connectable=1;" vertex="1" parent="gD4abBR8LCtO8fGX3W6F-51">
          <mxGeometry x="420" y="120" width="50" height="50" as="geometry" />
        </mxCell>
        <mxCell id="gD4abBR8LCtO8fGX3W6F-23" style="edgeStyle=orthogonalEdgeStyle;rounded=0;orthogonalLoop=1;jettySize=auto;html=1;entryX=1;entryY=0.5;entryDx=0;entryDy=0;entryPerimeter=0;movable=1;resizable=1;rotatable=1;deletable=1;editable=1;locked=0;connectable=1;" edge="1" parent="gD4abBR8LCtO8fGX3W6F-51" source="gD4abBR8LCtO8fGX3W6F-21" target="gD4abBR8LCtO8fGX3W6F-22">
          <mxGeometry relative="1" as="geometry" />
        </mxCell>
        <mxCell id="gD4abBR8LCtO8fGX3W6F-39" value="Recebe Lote" style="edgeLabel;html=1;align=center;verticalAlign=middle;resizable=1;points=[];movable=1;rotatable=1;deletable=1;editable=1;locked=0;connectable=1;" vertex="1" connectable="0" parent="gD4abBR8LCtO8fGX3W6F-23">
          <mxGeometry x="0.1833" y="-3" relative="1" as="geometry">
            <mxPoint x="9" y="-12" as="offset" />
          </mxGeometry>
        </mxCell>
        <mxCell id="gD4abBR8LCtO8fGX3W6F-56" value="" style="points=[[0.35,0,0],[0.98,0.51,0],[1,0.71,0],[0.67,1,0],[0,0.795,0],[0,0.65,0]];verticalLabelPosition=bottom;sketch=0;html=1;verticalAlign=top;aspect=fixed;align=center;pointerEvents=1;shape=mxgraph.cisco19.user;fillColor=#005073;strokeColor=none;movable=1;resizable=1;rotatable=1;deletable=1;editable=1;locked=0;connectable=1;" vertex="1" parent="gD4abBR8LCtO8fGX3W6F-51">
          <mxGeometry x="690" y="120" width="50" height="50" as="geometry" />
        </mxCell>
        <mxCell id="gD4abBR8LCtO8fGX3W6F-57" style="edgeStyle=orthogonalEdgeStyle;rounded=0;orthogonalLoop=1;jettySize=auto;html=1;entryX=1;entryY=0.5;entryDx=0;entryDy=0;entryPerimeter=0;movable=1;resizable=1;rotatable=1;deletable=1;editable=1;locked=0;connectable=1;" edge="1" parent="gD4abBR8LCtO8fGX3W6F-51" source="gD4abBR8LCtO8fGX3W6F-56" target="gD4abBR8LCtO8fGX3W6F-21">
          <mxGeometry relative="1" as="geometry" />
        </mxCell>
        <mxCell id="gD4abBR8LCtO8fGX3W6F-58" value="" style="aspect=fixed;sketch=0;html=1;dashed=0;whitespace=wrap;verticalLabelPosition=bottom;verticalAlign=top;fillColor=#2875E2;strokeColor=#ffffff;points=[[0.005,0.63,0],[0.1,0.2,0],[0.9,0.2,0],[0.5,0,0],[0.995,0.63,0],[0.72,0.99,0],[0.5,1,0],[0.28,0.99,0]];shape=mxgraph.kubernetes.icon2;prIcon=api;movable=1;resizable=1;rotatable=1;deletable=1;editable=1;locked=0;connectable=1;" vertex="1" parent="gD4abBR8LCtO8fGX3W6F-51">
          <mxGeometry x="690" y="190" width="50" height="48" as="geometry" />
        </mxCell>
        <mxCell id="gD4abBR8LCtO8fGX3W6F-59" style="edgeStyle=orthogonalEdgeStyle;rounded=0;orthogonalLoop=1;jettySize=auto;html=1;entryX=1;entryY=0.5;entryDx=0;entryDy=0;entryPerimeter=0;movable=1;resizable=1;rotatable=1;deletable=1;editable=1;locked=0;connectable=1;" edge="1" parent="gD4abBR8LCtO8fGX3W6F-51" source="gD4abBR8LCtO8fGX3W6F-58" target="gD4abBR8LCtO8fGX3W6F-21">
          <mxGeometry relative="1" as="geometry" />
        </mxCell>
        <mxCell id="gD4abBR8LCtO8fGX3W6F-90" value="Registra/Atualiza novo saldo no cache" style="outlineConnect=0;dashed=0;verticalLabelPosition=middle;verticalAlign=middle;align=left;html=1;shape=mxgraph.aws3.redis;fillColor=#2E73B8;gradientColor=none;labelPosition=right;movable=1;resizable=1;rotatable=1;deletable=1;editable=1;locked=0;connectable=1;" vertex="1" parent="gD4abBR8LCtO8fGX3W6F-51">
          <mxGeometry x="299" y="610" width="60" height="63" as="geometry" />
        </mxCell>
        <mxCell id="gD4abBR8LCtO8fGX3W6F-88" value="" style="aspect=fixed;sketch=0;html=1;dashed=0;whitespace=wrap;verticalLabelPosition=bottom;verticalAlign=top;fillColor=#2875E2;strokeColor=#ffffff;points=[[0.005,0.63,0],[0.1,0.2,0],[0.9,0.2,0],[0.5,0,0],[0.995,0.63,0],[0.72,0.99,0],[0.5,1,0],[0.28,0.99,0]];shape=mxgraph.kubernetes.icon2;prIcon=api;movable=1;resizable=1;rotatable=1;deletable=1;editable=1;locked=0;connectable=1;" vertex="1" parent="gD4abBR8LCtO8fGX3W6F-51">
          <mxGeometry x="304" y="105" width="50" height="48" as="geometry" />
        </mxCell>
        <mxCell id="gD4abBR8LCtO8fGX3W6F-100" style="edgeStyle=orthogonalEdgeStyle;rounded=0;orthogonalLoop=1;jettySize=auto;html=1;entryX=0.5;entryY=0;entryDx=0;entryDy=0;entryPerimeter=0;" edge="1" parent="gD4abBR8LCtO8fGX3W6F-51" source="gD4abBR8LCtO8fGX3W6F-88" target="gD4abBR8LCtO8fGX3W6F-21">
          <mxGeometry relative="1" as="geometry">
            <Array as="points">
              <mxPoint x="329" y="80" />
              <mxPoint x="595" y="80" />
            </Array>
          </mxGeometry>
        </mxCell>
        <mxCell id="gD4abBR8LCtO8fGX3W6F-7" style="edgeStyle=orthogonalEdgeStyle;rounded=0;orthogonalLoop=1;jettySize=auto;html=1;movable=1;resizable=1;rotatable=1;deletable=1;editable=1;locked=0;connectable=1;" edge="1" parent="1" source="gD4abBR8LCtO8fGX3W6F-4" target="gD4abBR8LCtO8fGX3W6F-9">
          <mxGeometry relative="1" as="geometry">
            <mxPoint x="150" y="385" as="targetPoint" />
          </mxGeometry>
        </mxCell>
        <mxCell id="gD4abBR8LCtO8fGX3W6F-4" value="" style="points=[[0.35,0,0],[0.98,0.51,0],[1,0.71,0],[0.67,1,0],[0,0.795,0],[0,0.65,0]];verticalLabelPosition=bottom;sketch=0;html=1;verticalAlign=top;aspect=fixed;align=center;pointerEvents=1;shape=mxgraph.cisco19.user;fillColor=#005073;strokeColor=none;movable=1;resizable=1;rotatable=1;deletable=1;editable=1;locked=0;connectable=1;" vertex="1" parent="1">
          <mxGeometry x="40" y="360" width="50" height="50" as="geometry" />
        </mxCell>
        <mxCell id="gD4abBR8LCtO8fGX3W6F-9" value="Gateway" style="outlineConnect=0;dashed=0;verticalLabelPosition=bottom;verticalAlign=top;align=center;html=1;shape=mxgraph.aws3.api_gateway;fillColor=#D9A741;gradientColor=none;movable=1;resizable=1;rotatable=1;deletable=1;editable=1;locked=0;connectable=1;" vertex="1" parent="1">
          <mxGeometry x="179.35" y="355" width="50" height="60" as="geometry" />
        </mxCell>
        <mxCell id="gD4abBR8LCtO8fGX3W6F-26" style="edgeStyle=orthogonalEdgeStyle;rounded=0;orthogonalLoop=1;jettySize=auto;html=1;movable=1;resizable=1;rotatable=1;deletable=1;editable=1;locked=0;connectable=1;" edge="1" parent="1" source="gD4abBR8LCtO8fGX3W6F-17" target="gD4abBR8LCtO8fGX3W6F-25">
          <mxGeometry relative="1" as="geometry" />
        </mxCell>
        <mxCell id="gD4abBR8LCtO8fGX3W6F-31" value="" style="edgeStyle=orthogonalEdgeStyle;rounded=0;orthogonalLoop=1;jettySize=auto;html=1;movable=1;resizable=1;rotatable=1;deletable=1;editable=1;locked=0;connectable=1;" edge="1" parent="1" source="gD4abBR8LCtO8fGX3W6F-17" target="gD4abBR8LCtO8fGX3W6F-25">
          <mxGeometry relative="1" as="geometry" />
        </mxCell>
        <mxCell id="gD4abBR8LCtO8fGX3W6F-17" value="FIFO" style="sketch=0;points=[[0,0,0],[0.25,0,0],[0.5,0,0],[0.75,0,0],[1,0,0],[0,1,0],[0.25,1,0],[0.5,1,0],[0.75,1,0],[1,1,0],[0,0.25,0],[0,0.5,0],[0,0.75,0],[1,0.25,0],[1,0.5,0],[1,0.75,0]];outlineConnect=0;fontColor=#232F3E;fillColor=#E7157B;strokeColor=#ffffff;dashed=0;verticalLabelPosition=middle;verticalAlign=middle;align=right;html=1;fontSize=12;fontStyle=0;aspect=fixed;shape=mxgraph.aws4.resourceIcon;resIcon=mxgraph.aws4.sqs;labelPosition=left;movable=1;resizable=1;rotatable=1;deletable=1;editable=1;locked=0;connectable=1;" vertex="1" parent="1">
          <mxGeometry x="323.64" y="530" width="50" height="50" as="geometry" />
        </mxCell>
        <mxCell id="gD4abBR8LCtO8fGX3W6F-24" style="edgeStyle=orthogonalEdgeStyle;rounded=0;orthogonalLoop=1;jettySize=auto;html=1;entryX=1;entryY=0.5;entryDx=0;entryDy=0;entryPerimeter=0;movable=1;resizable=1;rotatable=1;deletable=1;editable=1;locked=0;connectable=1;" edge="1" parent="1" source="gD4abBR8LCtO8fGX3W6F-22" target="gD4abBR8LCtO8fGX3W6F-17">
          <mxGeometry relative="1" as="geometry" />
        </mxCell>
        <mxCell id="gD4abBR8LCtO8fGX3W6F-35" style="edgeStyle=orthogonalEdgeStyle;rounded=0;orthogonalLoop=1;jettySize=auto;html=1;movable=1;resizable=1;rotatable=1;deletable=1;editable=1;locked=0;connectable=1;" edge="1" parent="1" source="gD4abBR8LCtO8fGX3W6F-25" target="gD4abBR8LCtO8fGX3W6F-34">
          <mxGeometry relative="1" as="geometry">
            <Array as="points">
              <mxPoint x="210" y="685" />
              <mxPoint x="210" y="685" />
            </Array>
          </mxGeometry>
        </mxCell>
        <mxCell id="gD4abBR8LCtO8fGX3W6F-25" value="" style="outlineConnect=0;dashed=0;verticalLabelPosition=bottom;verticalAlign=top;align=center;html=1;shape=mxgraph.aws3.lambda_function;fillColor=#F58534;gradientColor=none;movable=1;resizable=1;rotatable=1;deletable=1;editable=1;locked=0;connectable=1;" vertex="1" parent="1">
          <mxGeometry x="323.64" y="660" width="50" height="50" as="geometry" />
        </mxCell>
        <mxCell id="gD4abBR8LCtO8fGX3W6F-32" value="Registra Logs" style="sketch=0;points=[[0,0,0],[0.25,0,0],[0.5,0,0],[0.75,0,0],[1,0,0],[0,1,0],[0.25,1,0],[0.5,1,0],[0.75,1,0],[1,1,0],[0,0.25,0],[0,0.5,0],[0,0.75,0],[1,0.25,0],[1,0.5,0],[1,0.75,0]];points=[[0,0,0],[0.25,0,0],[0.5,0,0],[0.75,0,0],[1,0,0],[0,1,0],[0.25,1,0],[0.5,1,0],[0.75,1,0],[1,1,0],[0,0.25,0],[0,0.5,0],[0,0.75,0],[1,0.25,0],[1,0.5,0],[1,0.75,0]];outlineConnect=0;fontColor=#232F3E;fillColor=#E7157B;strokeColor=#ffffff;dashed=0;verticalLabelPosition=bottom;verticalAlign=top;align=center;html=1;fontSize=12;fontStyle=0;aspect=fixed;shape=mxgraph.aws4.resourceIcon;resIcon=mxgraph.aws4.cloudwatch_2;movable=1;resizable=1;rotatable=1;deletable=1;editable=1;locked=0;connectable=1;" vertex="1" parent="1">
          <mxGeometry x="540" y="660" width="50" height="50" as="geometry" />
        </mxCell>
        <mxCell id="gD4abBR8LCtO8fGX3W6F-34" value="Popula Dados no Mesh" style="sketch=0;outlineConnect=0;fontColor=#232F3E;gradientColor=none;fillColor=#8C4FFF;strokeColor=none;dashed=0;verticalLabelPosition=bottom;verticalAlign=top;align=center;html=1;fontSize=12;fontStyle=0;aspect=fixed;pointerEvents=1;shape=mxgraph.aws4.mesh;movable=1;resizable=1;rotatable=1;deletable=1;editable=1;locked=0;connectable=1;" vertex="1" parent="1">
          <mxGeometry x="179.35" y="650" width="50.65" height="50" as="geometry" />
        </mxCell>
        <mxCell id="gD4abBR8LCtO8fGX3W6F-37" value="SNS (Notifica Transacao)" style="sketch=0;points=[[0,0,0],[0.25,0,0],[0.5,0,0],[0.75,0,0],[1,0,0],[0,1,0],[0.25,1,0],[0.5,1,0],[0.75,1,0],[1,1,0],[0,0.25,0],[0,0.5,0],[0,0.75,0],[1,0.25,0],[1,0.5,0],[1,0.75,0]];outlineConnect=0;fontColor=#232F3E;fillColor=#E7157B;strokeColor=#ffffff;dashed=0;verticalLabelPosition=bottom;verticalAlign=top;align=center;html=1;fontSize=12;fontStyle=0;aspect=fixed;shape=mxgraph.aws4.resourceIcon;resIcon=mxgraph.aws4.sns;movable=1;resizable=1;rotatable=1;deletable=1;editable=1;locked=0;connectable=1;" vertex="1" parent="1">
          <mxGeometry x="540" y="770" width="50" height="50" as="geometry" />
        </mxCell>
        <mxCell id="gD4abBR8LCtO8fGX3W6F-38" style="edgeStyle=orthogonalEdgeStyle;rounded=0;orthogonalLoop=1;jettySize=auto;html=1;entryX=0;entryY=0.5;entryDx=0;entryDy=0;entryPerimeter=0;movable=1;resizable=1;rotatable=1;deletable=1;editable=1;locked=0;connectable=1;" edge="1" parent="1" source="gD4abBR8LCtO8fGX3W6F-25" target="gD4abBR8LCtO8fGX3W6F-37">
          <mxGeometry relative="1" as="geometry" />
        </mxCell>
        <mxCell id="gD4abBR8LCtO8fGX3W6F-43" style="edgeStyle=orthogonalEdgeStyle;rounded=0;orthogonalLoop=1;jettySize=auto;html=1;entryX=0;entryY=0.5;entryDx=0;entryDy=0;entryPerimeter=0;movable=1;resizable=1;rotatable=1;deletable=1;editable=1;locked=0;connectable=1;" edge="1" parent="1" source="gD4abBR8LCtO8fGX3W6F-25" target="gD4abBR8LCtO8fGX3W6F-32">
          <mxGeometry relative="1" as="geometry" />
        </mxCell>
        <mxCell id="gD4abBR8LCtO8fGX3W6F-44" value="Atualiza Base de Dados" style="outlineConnect=0;dashed=0;verticalLabelPosition=bottom;verticalAlign=top;align=center;html=1;shape=mxgraph.aws3.ms_sql_instance;fillColor=#2E73B8;gradientColor=none;movable=1;resizable=1;rotatable=1;deletable=1;editable=1;locked=0;connectable=1;" vertex="1" parent="1">
          <mxGeometry x="179.35" y="760" width="50" height="50" as="geometry" />
        </mxCell>
        <mxCell id="gD4abBR8LCtO8fGX3W6F-45" style="edgeStyle=orthogonalEdgeStyle;rounded=0;orthogonalLoop=1;jettySize=auto;html=1;entryX=1;entryY=0.5;entryDx=0;entryDy=0;entryPerimeter=0;exitX=0.5;exitY=1;exitDx=0;exitDy=0;exitPerimeter=0;movable=1;resizable=1;rotatable=1;deletable=1;editable=1;locked=0;connectable=1;" edge="1" parent="1" source="gD4abBR8LCtO8fGX3W6F-25" target="gD4abBR8LCtO8fGX3W6F-44">
          <mxGeometry relative="1" as="geometry">
            <mxPoint x="179.3499999999999" y="784.9999999999998" as="sourcePoint" />
          </mxGeometry>
        </mxCell>
        <mxCell id="gD4abBR8LCtO8fGX3W6F-91" style="edgeStyle=orthogonalEdgeStyle;rounded=0;orthogonalLoop=1;jettySize=auto;html=1;entryX=0.5;entryY=0;entryDx=0;entryDy=0;entryPerimeter=0;movable=1;resizable=1;rotatable=1;deletable=1;editable=1;locked=0;connectable=1;" edge="1" parent="1" source="gD4abBR8LCtO8fGX3W6F-25" target="gD4abBR8LCtO8fGX3W6F-90">
          <mxGeometry relative="1" as="geometry" />
        </mxCell>
        <mxCell id="gD4abBR8LCtO8fGX3W6F-93" style="edgeStyle=orthogonalEdgeStyle;rounded=0;orthogonalLoop=1;jettySize=auto;html=1;entryX=0.005;entryY=0.63;entryDx=0;entryDy=0;entryPerimeter=0;movable=1;resizable=1;rotatable=1;deletable=1;editable=1;locked=0;connectable=1;" edge="1" parent="1" source="gD4abBR8LCtO8fGX3W6F-9" target="gD4abBR8LCtO8fGX3W6F-88">
          <mxGeometry relative="1" as="geometry" />
        </mxCell>
        <mxCell id="gD4abBR8LCtO8fGX3W6F-94" style="edgeStyle=orthogonalEdgeStyle;rounded=0;orthogonalLoop=1;jettySize=auto;html=1;entryX=0.5;entryY=0;entryDx=0;entryDy=0;entryPerimeter=0;movable=1;resizable=1;rotatable=1;deletable=1;editable=1;locked=0;connectable=1;" edge="1" parent="1" source="gD4abBR8LCtO8fGX3W6F-88" target="gD4abBR8LCtO8fGX3W6F-17">
          <mxGeometry relative="1" as="geometry" />
        </mxCell>
      </root>
    </mxGraphModel>
  </diagram>
</mxfile>
